<?xml version="1.0" encoding="iso-8859-1"?>
<!-- Generator: Adobe Illustrator 19.2.0, SVG Export Plug-In . SVG Version: 6.00 Build 0)  -->
<svg version="1.1" id="Layer_1" xmlns="http://www.w3.org/2000/svg" xmlns:xlink="http://www.w3.org/1999/xlink" x="0px" y="0px"
	 viewBox="0 0 101.226 101" style="enable-background:new 0 0 101.226 101;" xml:space="preserve">
<g>
	<g>
		<path style="fill:#034F3B;" d="M98.956,79.886L83.324,64.248c-3.116-3.1-8.269-3.004-11.49,0.219l-7.877,7.875
			c-0.496-0.27-1.013-0.559-1.554-0.863c-4.978-2.761-11.78-6.532-18.949-13.7c-7.184-7.187-10.967-14.007-13.725-18.985
			c-0.297-0.523-0.577-1.028-0.847-1.518L34.164,32l2.602-2.602c3.223-3.23,3.32-8.383,0.21-11.49L21.338,2.27
			c-3.1-3.109-8.26-3.013-11.492,0.217L5.447,6.915l0.112,0.121c-1.475,1.887-2.707,4.062-3.624,6.402
			c-0.847,2.235-1.379,4.366-1.614,6.496c-2.07,17.114,5.754,32.752,26.972,53.979c29.339,29.33,52.984,27.121,54.006,27.007
			c2.218-0.262,4.348-0.794,6.514-1.632c2.322-0.907,4.497-2.139,6.375-3.615l0.096,0.087l4.471-4.375
			C101.967,88.155,102.063,83.004,98.956,79.886L98.956,79.886z M98.956,79.886"/>
	</g>
</g>
</svg>
